<?xml version="1.0" encoding="utf-8"?>
<!-- Generator: Adobe Illustrator 24.0.1, SVG Export Plug-In . SVG Version: 6.00 Build 0)  -->
<svg version="1.1" id="Layer_1" xmlns="http://www.w3.org/2000/svg" xmlns:xlink="http://www.w3.org/1999/xlink" x="0px" y="0px"
	 viewBox="0 0 1920 1080" style="enable-background:new 0 0 1920 1080;" xml:space="preserve">
<style type="text/css">
	.st0{fill:url(#SVGID_1_);}
	.st1{fill:url(#SVGID_2_);}
	.st2{fill:url(#SVGID_3_);}
	.st3{fill:url(#SVGID_4_);}
	.st4{fill:url(#SVGID_5_);}
</style>
<g>
	<linearGradient id="SVGID_1_" gradientUnits="userSpaceOnUse" x1="808.7593" y1="286.6153" x2="1324.1439" y2="1150.0769">
		<stop  offset="0" style="stop-color:#FF3FB5"/>
		<stop  offset="1" style="stop-color:#15FFF5"/>
	</linearGradient>
	<rect class="st0" width="1920" height="1080"/>
</g>
<linearGradient id="SVGID_2_" gradientUnits="userSpaceOnUse" x1="24.2418" y1="429.8286" x2="1588.0818" y2="-118.8114">
	<stop  offset="0" style="stop-color:#FF51F6"/>
	<stop  offset="1" style="stop-color:#6DD4FF"/>
</linearGradient>
<path class="st1" d="M0,721.2c0,0,288,188.8,776-194.2s417-87,715-212S1920,0,1920,0H0V721.2z"/>
<linearGradient id="SVGID_3_" gradientUnits="userSpaceOnUse" x1="80.2686" y1="358.3528" x2="1652.7487" y2="-110.3672">
	<stop  offset="0" style="stop-color:#FF81F3"/>
	<stop  offset="1" style="stop-color:#85EBFF"/>
</linearGradient>
<path class="st2" d="M0,518c0,0,459,229,692,0s185-127,233-276s251-39,251-39s474-39,561-203H0V518z"/>
<linearGradient id="SVGID_4_" gradientUnits="userSpaceOnUse" x1="149.0073" y1="314.9831" x2="892.0473" y2="146.5031">
	<stop  offset="0" style="stop-color:#FF94F6"/>
	<stop  offset="1" style="stop-color:#BFE5FF;stop-opacity:0.5"/>
</linearGradient>
<path class="st3" d="M0,345.3c0,0,174,242.7,612,84.7s452-57,538-7s463.4-243,511.7-423H0V345.3z"/>
<linearGradient id="SVGID_5_" gradientUnits="userSpaceOnUse" x1="1193" y1="850" x2="1920" y2="850">
	<stop  offset="0" style="stop-color:#FF94F6"/>
	<stop  offset="1" style="stop-color:#BFE5FF;stop-opacity:0.5"/>
</linearGradient>
<path class="st4" d="M1193,1080c0,0,70-256,305-247s274-118,302-140s50-58,120-73v460H1193z"/>
</svg>
